<svg width="462" height="462" viewBox="0 0 462 462" fill="none" xmlns="http://www.w3.org/2000/svg">
<path d="M395 0C432.003 0 462 29.9969 462 67V395C462 432.003 432.003 462 395 462H67C29.9969 462 5.47692e-07 432.003 0 395V67C0 29.9969 29.9969 5.47621e-07 67 0H395ZM231.5 42C131.813 42 51 122.813 51 222.5C51 322.187 131.813 403 231.5 403C331.187 403 412 322.187 412 222.5C412 122.813 331.187 42 231.5 42Z" fill="black"/>
<ellipse cx="228.5" cy="79.6667" rx="30.5" ry="28.6667" fill="black"/>
<ellipse cx="228.5" cy="108.333" rx="30.5" ry="28.6667" fill="black"/>
<rect x="198" y="73.2963" width="61" height="39.284" rx="5" fill="black"/>
<ellipse cx="253.667" cy="344.5" rx="33.5" ry="45.3333" transform="rotate(90 253.667 344.5)" fill="black"/>
<ellipse cx="208.333" cy="344.5" rx="33.5" ry="45.3333" transform="rotate(90 208.333 344.5)" fill="black"/>
<rect x="263.741" y="311" width="67" height="62.1235" rx="5" transform="rotate(90 263.741 311)" fill="black"/>
<ellipse cx="317.5" cy="116" rx="31.5" ry="28" fill="black"/>
<ellipse cx="140.5" cy="116" rx="31.5" ry="28" fill="black"/>
<ellipse cx="231" cy="208.5" rx="79" ry="58.5" fill="black"/>
<path d="M276.632 291.252C266.961 288.945 245.811 273.73 244.105 266.293C244.008 265.871 244.261 265.475 244.664 265.318C258.115 260.09 286.612 248.705 283.807 251.409C283.706 251.507 283.56 251.582 283.429 251.63C277.716 253.731 275.648 278.213 277.73 290.13C277.848 290.807 277.301 291.412 276.632 291.252Z" fill="black" stroke="black"/>
<path d="M327 194C322 169.5 332.5 151.5 350 149.5C388 148.5 388 180.5 390 194C392 207.5 388 247.562 384.5 244.5C376.5 237.5 348.5 231 345 227.5C341.5 224 332 218.5 327 194Z" fill="black" stroke="black"/>
<path d="M134.535 194.523C139.535 170.023 129.035 152.023 111.535 150.023C73.5351 149.023 73.5351 181.023 71.5351 194.523C69.5351 208.023 73.5351 248.085 77.0351 245.023C85.0351 238.023 113.035 231.523 116.535 228.023C120.035 224.523 129.535 219.023 134.535 194.523Z" fill="black" stroke="black"/>
<path d="M317 262.5C332.894 243.196 352.5 244.5 367.219 253.858C389.5 275 367.911 304.753 359.5 315.5C350.5 327 333 343 319.5 344C315.223 344.317 314.967 342.474 311.5 335C301.5 322.5 299.188 303.971 299.5 301C300.017 296.077 301.107 281.804 317 262.5Z" fill="black" stroke="black"/>
<path d="M143.209 260.007C127.316 240.703 107.709 242.007 92.991 251.365C70.7095 272.507 92.2985 302.26 100.709 313.007C109.709 324.507 127.209 340.507 140.709 341.507C144.987 341.824 145.243 339.981 148.71 332.507C158.71 320.007 161.022 301.478 160.709 298.507C160.192 293.585 159.103 279.311 143.209 260.007Z" fill="black" stroke="black"/>
</svg>
